<svg width="20" height="20" viewBox="0 0 20 20" fill="none" xmlns="http://www.w3.org/2000/svg">
<path fill-rule="evenodd" clip-rule="evenodd" d="M8.11019 2.27685C8.5009 1.88615 9.0308 1.66666 9.58333 1.66666C10.1359 1.66666 10.6658 1.88615 11.0565 2.27685C11.3475 2.56784 11.5435 2.93606 11.6246 3.33332H13.75C15.3608 3.33332 16.6667 4.63916 16.6667 6.24999V8.37541C17.0639 8.4565 17.4321 8.65252 17.7231 8.94352C18.1138 9.33422 18.3333 9.86412 18.3333 10.4167C18.3333 10.9692 18.1138 11.4991 17.7231 11.8898C17.4321 12.1808 17.0639 12.3768 16.6667 12.4579V14.5833C16.6667 16.1942 15.3608 17.5 13.75 17.5H11.25C11.0199 17.5 10.8333 17.3134 10.8333 17.0833C10.8333 16.7518 10.7016 16.4339 10.4672 16.1994C10.2328 15.965 9.91485 15.8333 9.58333 15.8333C9.25181 15.8333 8.93387 15.965 8.69945 16.1994C8.46503 16.4339 8.33333 16.7518 8.33333 17.0833C8.33333 17.3134 8.14679 17.5 7.91667 17.5H5.41667C3.80584 17.5 2.5 16.1942 2.5 14.5833V12.0833C2.5 11.8532 2.68655 11.6667 2.91667 11.6667C3.24819 11.6667 3.56613 11.535 3.80055 11.3005L4.09518 11.5952L3.80055 11.3005C4.03497 11.0661 4.16667 10.7482 4.16667 10.4167C4.16667 10.0851 4.03497 9.76719 3.80055 9.53277C3.56613 9.29835 3.24819 9.16666 2.91667 9.16666C2.68655 9.16666 2.5 8.98011 2.5 8.74999V6.24999C2.5 4.63916 3.80584 3.33332 5.41667 3.33332L7.54208 3.33332C7.62318 2.93605 7.8192 2.56784 8.11019 2.27685ZM9.58333 2.49999C9.25181 2.49999 8.93387 2.63169 8.69945 2.86611C8.46503 3.10053 8.33333 3.41847 8.33333 3.74999C8.33333 3.98011 8.14679 4.16666 7.91667 4.16666L5.41667 4.16666C4.26607 4.16666 3.33333 5.0994 3.33333 6.24999V8.37541C3.7306 8.4565 4.09881 8.65252 4.38981 8.94352C4.78051 9.33422 5 9.86412 5 10.4167C5 10.9692 4.78051 11.4991 4.38981 11.8898C4.09881 12.1808 3.7306 12.3768 3.33333 12.4579V14.5833C3.33333 15.7339 4.26607 16.6667 5.41667 16.6667H7.54208C7.62318 16.2694 7.8192 15.9012 8.11019 15.6102L8.40482 15.9048L8.11019 15.6102C8.5009 15.2195 9.0308 15 9.58333 15C10.1359 15 10.6658 15.2195 11.0565 15.6102C11.3475 15.9012 11.5435 16.2694 11.6246 16.6667H13.75C14.9006 16.6667 15.8333 15.7339 15.8333 14.5833V12.0833C15.8333 11.8532 16.0199 11.6667 16.25 11.6667C16.5815 11.6667 16.8995 11.535 17.1339 11.3005C17.3683 11.0661 17.5 10.7482 17.5 10.4167C17.5 10.0851 17.3683 9.76719 17.1339 9.53277C16.8995 9.29835 16.5815 9.16666 16.25 9.16666C16.0199 9.16666 15.8333 8.98011 15.8333 8.74999V6.24999C15.8333 5.0994 14.9006 4.16666 13.75 4.16666H11.25C11.0199 4.16666 10.8333 3.98011 10.8333 3.74999C10.8333 3.41847 10.7016 3.10053 10.4672 2.86611L10.7618 2.57148L10.4672 2.86611C10.2328 2.63169 9.91485 2.49999 9.58333 2.49999Z" fill="#B9C0DE"/>
</svg>
